<svg width="256" height="256" viewBox="0 0 256 256" fill="none" xmlns="http://www.w3.org/2000/svg">
<path d="M100 140C100 141.582 99.5308 143.129 98.6518 144.445C97.7727 145.76 96.5233 146.786 95.0615 147.391C93.5997 147.997 91.9911 148.155 90.4393 147.846C88.8874 147.538 87.462 146.776 86.3432 145.657C85.2243 144.538 84.4624 143.113 84.1537 141.561C83.8451 140.009 84.0035 138.4 84.609 136.939C85.2145 135.477 86.2399 134.227 87.5555 133.348C88.871 132.469 90.4178 132 92 132C94.1217 132 96.1566 132.843 97.6569 134.343C99.1572 135.843 100 137.878 100 140ZM164 148C165.582 148 167.129 147.531 168.445 146.652C169.76 145.773 170.786 144.523 171.391 143.061C171.997 141.6 172.155 139.991 171.846 138.439C171.538 136.887 170.776 135.462 169.657 134.343C168.538 133.224 167.113 132.462 165.561 132.154C164.009 131.845 162.4 132.003 160.939 132.609C159.477 133.214 158.227 134.24 157.348 135.555C156.469 136.871 156 138.418 156 140C156 142.122 156.843 144.157 158.343 145.657C159.843 147.157 161.878 148 164 148ZM228.94 138.89C227.371 139.612 225.667 139.99 223.94 140C222.132 139.996 220.349 139.577 218.728 138.776C217.108 137.975 215.692 136.813 214.59 135.38L212 132.09V184C212 193.548 208.207 202.705 201.456 209.456C194.705 216.207 185.548 220 176 220H80C70.4522 220 61.2955 216.207 54.5442 209.456C47.7929 202.705 44 193.548 44 184V132.09L41.47 135.36C40.3656 136.797 38.947 137.962 37.3229 138.766C35.6989 139.571 33.9123 139.993 32.1 140C30.3732 139.992 28.6682 139.613 27.1 138.89C24.6331 137.807 22.6101 135.914 21.3662 133.524C20.1222 131.135 19.732 128.392 20.26 125.75L36.68 37.75C36.9816 36.1425 37.6087 34.6136 38.5226 33.2572C39.4366 31.9008 40.6182 30.7456 41.9949 29.8625C43.3715 28.9794 44.9142 28.387 46.5281 28.1218C48.142 27.8565 49.7931 27.924 51.38 28.32H51.54L104.58 44H151.42L204.5 28.4H204.66C206.247 28.004 207.898 27.9365 209.512 28.2018C211.126 28.467 212.669 29.0594 214.045 29.9425C215.422 30.8256 216.603 31.9809 217.517 33.3372C218.431 34.6936 219.058 36.2225 219.36 37.83L235.78 125.83C236.29 128.46 235.891 131.185 234.648 133.558C233.405 135.932 231.392 137.812 228.94 138.89ZM97.25 50.18L49.34 36.1C49.038 36.0327 48.7294 35.9992 48.42 36C47.4894 36.0026 46.5888 36.3295 45.8733 36.9246C45.1578 37.5196 44.6722 38.3455 44.5 39.26L28.08 127.26C27.9099 128.142 28.0414 129.055 28.4534 129.853C28.8655 130.651 29.5341 131.287 30.3516 131.659C31.1691 132.031 32.0879 132.117 32.9601 131.903C33.8323 131.689 34.6072 131.188 35.16 130.48L97.25 50.18ZM204 121.75L150 52H106L52 121.75V184C52 191.426 54.95 198.548 60.201 203.799C65.452 209.05 72.574 212 80 212H124V193.66L109.17 178.83C108.419 178.079 107.998 177.061 107.998 176C107.998 174.939 108.419 173.921 109.17 173.17C109.921 172.419 110.939 171.998 112 171.998C113.061 171.998 114.079 172.419 114.83 173.17L128 186.34L141.17 173.17C141.921 172.419 142.939 171.998 144 171.998C145.061 171.998 146.079 172.419 146.83 173.17C147.581 173.921 148.002 174.939 148.002 176C148.002 177.061 147.581 178.079 146.83 178.83L132 193.66V212H176C183.426 212 190.548 209.05 195.799 203.799C201.05 198.548 204 191.426 204 184V121.75ZM227.92 127.23L211.5 39.23C211.401 38.6991 211.195 38.1938 210.895 37.7446C210.595 37.2953 210.207 36.9115 209.755 36.6162C209.303 36.3209 208.795 36.1203 208.263 36.0264C207.731 35.9326 207.186 35.9474 206.66 36.07L158.75 50.18L220.86 130.46C221.416 131.158 222.191 131.651 223.059 131.858C223.928 132.066 224.841 131.977 225.653 131.605C226.465 131.234 227.129 130.601 227.54 129.808C227.951 129.015 228.085 128.108 227.92 127.23Z" fill="#141414"/>
</svg>
