<svg width="30" height="30" viewBox="0 0 30 30" fill="none" xmlns="http://www.w3.org/2000/svg">
<path d="M6.65411 19.8407L6.65377 19.841C5.53267 20.5034 4.80545 21.1749 4.35007 21.7853C3.91151 22.3731 3.6875 22.9584 3.6875 23.4375C3.6875 24.2 3.9904 24.9313 4.52957 25.4704C5.06874 26.0096 5.8 26.3125 6.5625 26.3125H23.4375C24.2 26.3125 24.9313 26.0096 25.4704 25.4704C26.0096 24.9313 26.3125 24.2 26.3125 23.4375C26.3125 22.9584 26.0885 22.3731 25.6499 21.7853C25.1945 21.1749 24.4673 20.5034 23.3462 19.841L23.3459 19.8407C21.2705 18.6155 18.3136 17.75 15 17.75C11.6864 17.75 8.72948 18.6155 6.65411 19.8407ZM18.3588 11.7963C19.2496 10.9055 19.75 9.69728 19.75 8.4375C19.75 7.17772 19.2496 5.96954 18.3588 5.07874C17.468 4.18795 16.2598 3.6875 15 3.6875C13.7402 3.6875 12.532 4.18794 11.6412 5.07874C10.7504 5.96954 10.25 7.17772 10.25 8.4375C10.25 9.69728 10.7504 10.9055 11.6412 11.7963C12.532 12.6871 13.7402 13.1875 15 13.1875C16.2598 13.1875 17.468 12.6871 18.3588 11.7963Z" stroke="#FF7F00" stroke-width="2"/>
</svg>
