<svg width="177" height="177" viewBox="0 0 177 177" fill="none" xmlns="http://www.w3.org/2000/svg">
<path d="M84.0833 168.833H92.5C103.661 168.833 114.365 164.4 122.257 156.507C130.15 148.615 134.583 137.911 134.583 126.75C134.583 124.518 133.697 122.377 132.118 120.799C130.54 119.22 128.399 118.333 126.167 118.333C123.934 118.333 121.794 119.22 120.215 120.799C118.637 122.377 117.75 124.518 117.75 126.75C117.75 133.447 115.09 139.869 110.354 144.604C105.619 149.34 99.1967 152 92.5 152H84.0833C77.3866 152 70.9642 149.34 66.2289 144.604C61.4936 139.869 58.8333 133.447 58.8333 126.75V92.5C58.8333 83.5 58.0784 80.0784 56.5 78.5C54.788 76.788 42 71.5 42 85V126.75C42 137.911 46.4338 148.615 54.3259 156.507C62.2181 164.4 72.9221 168.833 84.0833 168.833Z" fill="#141414"/>
<path d="M125.917 131.833C121.43 131.833 117.127 130.051 113.955 126.879C110.782 123.706 109 119.403 109 114.917V106.458C109 104.215 109.891 102.064 111.477 100.477C113.064 98.8911 115.215 98 117.458 98H134.375C136.618 98 138.77 98.8911 140.356 100.477C141.942 102.064 142.833 104.215 142.833 106.458V114.917C142.833 119.403 141.051 123.706 137.879 126.879C134.706 130.051 130.403 131.833 125.917 131.833Z" fill="white"/>
<path fill-rule="evenodd" clip-rule="evenodd" d="M116.076 124.757C118.686 127.367 122.226 128.833 125.917 128.833C129.608 128.833 133.147 127.367 135.757 124.757C138.367 122.147 139.833 118.608 139.833 114.917V106.458C139.833 105.011 139.258 103.622 138.235 102.599C137.211 101.575 135.823 101 134.375 101H117.458C116.011 101 114.622 101.575 113.599 102.599C112.575 103.622 112 105.011 112 106.458V114.917C112 118.608 113.466 122.147 116.076 124.757ZM113.955 126.879C117.127 130.051 121.43 131.833 125.917 131.833C130.403 131.833 134.706 130.051 137.879 126.879C141.051 123.706 142.833 119.403 142.833 114.917V106.458C142.833 104.215 141.942 102.064 140.356 100.477C138.77 98.8911 136.618 98 134.375 98H117.458C115.215 98 113.064 98.8911 111.477 100.477C109.891 102.064 109 104.215 109 106.458V114.917C109 119.403 110.782 123.706 113.955 126.879Z" fill="#141414"/>
<path d="M160.167 8H92.8333C88.3689 8 84.0872 9.61045 80.9304 12.4771C77.7735 15.3437 76 19.2317 76 23.2857V76.7857C76 86.9208 80.4338 96.6407 88.3259 103.807C96.2181 110.974 106.922 115 118.083 115H134.917C146.078 115 156.782 110.974 164.674 103.807C172.566 96.6407 177 86.9208 177 76.7857V23.2857C177 19.2317 175.226 15.3437 172.07 12.4771C168.913 9.61045 164.631 8 160.167 8Z" fill="#FF7F00"/>
<path fill-rule="evenodd" clip-rule="evenodd" d="M160.167 10.7656H92.8333C89.0209 10.7656 85.4119 12.1433 82.7896 14.5245C80.1762 16.8977 78.7656 20.056 78.7656 23.2857V76.7857C78.7656 86.0965 82.8364 95.0868 90.1851 101.76C97.5427 108.441 107.574 112.234 118.083 112.234H134.917C145.426 112.234 155.457 108.441 162.815 101.76C170.164 95.0868 174.234 86.0965 174.234 76.7857V23.2857C174.234 20.056 172.824 16.8977 170.21 14.5245C167.588 12.1433 163.979 10.7656 160.167 10.7656ZM92.8333 8H160.167C164.631 8 168.913 9.61045 172.07 12.4771C175.226 15.3437 177 19.2317 177 23.2857V76.7857C177 86.9208 172.566 96.6407 164.674 103.807C156.782 110.974 146.078 115 134.917 115H118.083C106.922 115 96.2181 110.974 88.3259 103.807C80.4338 96.6407 76 86.9208 76 76.7857V23.2857C76 19.2317 77.7735 15.3437 80.9304 12.4771C84.0872 9.61045 88.3689 8 92.8333 8Z" fill="#141414"/>
<path d="M97 69.5C97 71.4891 96.3679 73.3968 95.2426 74.8033C94.1174 76.2098 91.5913 77 90 77H79V62H90C91.5913 62 94.1174 62.7902 95.2426 64.1967C96.3679 65.6032 97 67.5109 97 69.5ZM97 39.5C97 37.5109 96.3679 35.6032 95.2426 34.1967C94.1174 32.7902 91.5913 32 90 32H79V47H90C91.5913 47 94.1174 46.2098 95.2426 44.8033C96.3679 43.3968 97 41.4891 97 39.5Z" fill="white"/>
<path fill-rule="evenodd" clip-rule="evenodd" d="M76.2344 79.7656V59.2344H90C91.188 59.2344 92.5543 59.515 93.7886 59.9895C94.9931 60.4526 96.4116 61.2307 97.4022 62.469C98.9611 64.4177 99.7656 66.9525 99.7656 69.5C99.7656 72.0475 98.9611 74.5823 97.4022 76.531C96.4116 77.7693 94.9931 78.5474 93.7886 79.0105C92.5543 79.485 91.188 79.7656 90 79.7656H76.2344ZM76.2344 29.2344H90C91.188 29.2344 92.5543 29.515 93.7886 29.9895C94.9931 30.4526 96.4116 31.2307 97.4022 32.469C98.9611 34.4177 99.7656 36.9525 99.7656 39.5C99.7656 42.0475 98.9611 44.5823 97.4022 46.531C96.4116 47.7693 94.9931 48.5474 93.7886 49.0105C92.5543 49.485 91.188 49.7656 90 49.7656H76.2344V29.2344ZM79 47V32H90C91.5913 32 94.1174 32.7902 95.2426 34.1967C96.3679 35.6032 97 37.5109 97 39.5C97 41.4891 96.3679 43.3968 95.2426 44.8033C94.1174 46.2098 91.5913 47 90 47H79ZM95.2426 74.8033C96.3679 73.3968 97 71.4891 97 69.5C97 67.5109 96.3679 65.6032 95.2426 64.1967C94.1174 62.7902 91.5913 62 90 62H79V77H90C91.5913 77 94.1174 76.2098 95.2426 74.8033Z" fill="#141414"/>
<path d="M163.748 56.4863C163.423 54.8503 162.593 53.5486 161.346 52.7232L161.329 52.7126C160.76 52.3437 160.127 52.0848 159.463 51.9495L159.389 51.9346C156.269 51.3442 152.552 53.3372 150.141 56.8947C148.374 59.4956 147.612 62.5258 148.102 65.0012C148.426 66.6381 149.258 67.9402 150.511 68.7668L150.525 68.7755C151.093 69.1443 151.727 69.4032 152.391 69.5386C155.531 70.1819 159.282 68.1957 161.733 64.5928C163.484 61.9924 164.239 58.963 163.748 56.4863ZM147.884 70.7107C146.311 69.2652 144.824 67.8981 144.092 65.8395C142.074 60.1433 140.856 56.7049 136.018 55.7138C131.179 54.7226 128.702 57.404 124.601 61.8468C123.115 63.4534 121.207 64.1262 119.186 64.8401C116.868 65.6575 114.474 66.502 113.037 68.8349C112.493 69.6705 112.114 70.6027 111.921 71.581C111.08 75.6862 113.593 79.6814 117.521 80.4861C119.548 80.9013 121.849 80.6409 124.284 80.3651C126.625 80.0999 129.046 79.8259 131.008 80.2278C132.97 80.6296 135.081 81.8321 137.122 82.9949C139.249 84.2005 141.252 85.3425 143.284 85.7589C147.207 86.5625 151.083 83.8761 151.924 79.7709C152.127 78.794 152.142 77.7872 151.966 76.8049C151.563 74.0927 149.692 72.3733 147.884 70.7107ZM124.735 49.2202C125.745 51.2035 127.277 52.4954 129.049 52.8585C129.291 52.908 129.536 52.9396 129.783 52.9529C133.591 53.1665 136.818 49.1277 137.132 43.7496C137.266 41.4889 136.84 39.2706 135.94 37.5061C134.932 35.5267 133.397 34.2355 131.626 33.8727C131.384 33.8231 131.139 33.7916 130.892 33.7783C127.084 33.5646 123.857 37.6034 123.543 42.9815C123.409 45.2386 123.836 47.4546 124.735 49.2202ZM142.837 55.6269C143.069 55.7116 143.306 55.7791 143.548 55.8286C145.322 56.1919 147.237 55.6063 148.945 54.1797C150.466 52.9098 151.725 51.0391 152.494 48.9098C154.319 43.8437 152.94 38.8612 149.356 37.5581C149.124 37.4734 148.886 37.406 148.644 37.3564C146.872 36.9958 144.953 37.5797 143.248 39.0033C141.727 40.2718 140.463 42.1439 139.698 44.2775C137.872 49.3436 139.251 54.3261 142.837 55.6269ZM117.543 62.0192L117.56 62.0168C119.035 61.7489 120.311 60.88 121.251 59.5031C122.676 57.4153 123.167 54.333 122.567 51.2474C121.737 46.9771 119.071 43.6753 115.934 43.0327C115.27 42.8956 114.586 42.8847 113.918 43.0004L113.901 43.0029C112.431 43.2669 111.154 44.1404 110.214 45.5172C108.789 47.6051 108.298 50.6874 108.897 53.7729C109.728 58.0432 112.393 61.3451 115.53 61.9877C116.193 62.124 116.876 62.1347 117.543 62.0192Z" fill="#141414"/>
<path d="M58.4951 84.0717C56.4951 71.0717 49.1541 61.7673 39.8573 55.5904C30.5606 49.4135 19.1928 47.1824 8.2509 49.3883C6.06253 49.8295 4.13943 51.1217 2.90396 52.981C1.66848 54.8403 1.2224 57.1141 1.66355 59.3023C2.10469 61.4906 3.3969 63.4139 5.25625 64.6492C7.1156 65.8846 9.38917 66.3308 11.5775 65.8896C18.1427 64.5661 24.9633 65.9048 30.5414 69.6109C36.1194 73.317 41.495 79.0715 41.9949 88.0717L58.4951 84.0717Z" fill="#141414"/>
<path d="M39.4009 29.4349L49.1274 29.4974C50.1272 29.5038 50.9429 28.6986 50.9493 27.6988L50.9601 26.025C50.9665 25.0252 50.1612 24.2095 49.1615 24.2031L39.4349 24.1406L39.4974 14.414C39.5038 13.4142 38.6986 12.5985 37.6988 12.5921L36.025 12.5814C35.0252 12.5749 34.2095 13.3802 34.2031 14.38L34.1406 24.1066L24.414 24.044C23.4142 24.0376 22.5985 24.8429 22.5921 25.8427L22.5813 27.5165C22.5749 28.5162 23.3802 29.3319 24.38 29.3384L34.1065 29.4009L34.044 39.1274C34.0376 40.1272 34.8429 40.9429 35.8427 40.9493L37.5164 40.9601C38.5162 40.9665 39.3319 40.1613 39.3383 39.1615L39.4009 29.4349Z" fill="#FF6960"/>
<path fill-rule="evenodd" clip-rule="evenodd" d="M39.4009 29.4349L49.1275 29.4974C50.1273 29.5038 50.943 28.6986 50.9494 27.6988L50.9602 26.025C50.9666 25.0252 50.1613 24.2095 49.1615 24.2031L39.435 24.1406L39.4975 14.414C39.5039 13.4142 38.6986 12.5985 37.6988 12.5921L36.0251 12.5814C35.0253 12.5749 34.2096 13.3802 34.2032 14.38L34.1407 24.1066L24.4141 24.044C23.4143 24.0376 22.5986 24.8429 22.5922 25.8427L22.5814 27.5165C22.575 28.5162 23.3803 29.3319 24.3801 29.3384L34.1066 29.4009L34.0441 39.1274C34.0377 40.1272 34.843 40.9429 35.8427 40.9493L37.5165 40.9601C38.5163 40.9665 39.332 40.1613 39.3384 39.1615L39.4009 29.4349ZM31.0874 32.3815L24.3608 32.3383C21.7042 32.3212 19.5644 30.1538 19.5815 27.4972L19.5922 25.8234C19.6093 23.1668 21.7767 21.027 24.4334 21.0441L31.16 21.0873L31.2032 14.3607C31.2203 11.7041 33.3877 9.56434 36.0443 9.58142L37.7181 9.59217C40.3747 9.60925 42.5145 11.7767 42.4974 14.4333L42.4542 21.1599L49.1808 21.2032C51.8374 21.2202 53.9772 23.3877 53.9601 26.0443L53.9493 27.7181C53.9323 30.3747 51.7648 32.5144 49.1082 32.4973L42.3816 32.4541L42.3384 39.1807C42.3213 41.8374 40.1539 43.9771 37.4972 43.96L35.8235 43.9493C33.1669 43.9322 31.0271 41.7648 31.0442 39.1082L31.0874 32.3815Z" fill="#141414"/>
</svg>
