<svg width="199" height="48" viewBox="0 0 199 48" fill="none" xmlns="http://www.w3.org/2000/svg">
<path d="M18.0519 43.2467H19.8589C22.2551 43.2467 24.5531 42.2949 26.2475 40.6005C27.9419 38.9061 28.8937 36.6081 28.8937 34.2119C28.8937 33.7327 28.7034 33.2731 28.3645 32.9342C28.0256 32.5953 27.566 32.4049 27.0868 32.4049C26.6075 32.4049 26.1479 32.5953 25.809 32.9342C25.4702 33.2731 25.2798 33.7327 25.2798 34.2119C25.2798 35.6496 24.7087 37.0284 23.6921 38.0451C22.6754 39.0617 21.2966 39.6328 19.8589 39.6328H18.0519C16.6142 39.6328 15.2354 39.0617 14.2188 38.0451C13.2022 37.0284 12.631 35.6496 12.631 34.2119V26.8588C12.631 24.9266 12.469 24.192 12.1301 23.8532C11.7625 23.4856 9.01709 22.3503 9.01709 25.2486V34.2119C9.01709 36.6081 9.96897 38.9061 11.6633 40.6005C13.3577 42.2949 15.6557 43.2467 18.0519 43.2467Z" fill="white"/>
<path d="M27.0332 35.3032C26.07 35.3032 25.1462 34.9206 24.4651 34.2395C23.784 33.5584 23.4014 32.6346 23.4014 31.6714V29.8555C23.4014 29.3739 23.5927 28.912 23.9332 28.5714C24.2738 28.2309 24.7357 28.0396 25.2173 28.0396H28.8491C29.3307 28.0396 29.7926 28.2309 30.1332 28.5714C30.4737 28.912 30.665 29.3739 30.665 29.8555V31.6714C30.665 32.6346 30.2824 33.5584 29.6013 34.2395C28.9202 34.9206 27.9964 35.3032 27.0332 35.3032Z" fill="#333333"/>
<path fill-rule="evenodd" clip-rule="evenodd" d="M24.9205 33.784C25.4808 34.3444 26.2408 34.6591 27.0332 34.6591C27.8256 34.6591 28.5855 34.3444 29.1459 33.784C29.7062 33.2237 30.021 32.4638 30.021 31.6714V29.8555C30.021 29.5447 29.8975 29.2466 29.6777 29.0268C29.458 28.8071 29.1599 28.6836 28.8491 28.6836H25.2173C24.9065 28.6836 24.6084 28.8071 24.3887 29.0268C24.1689 29.2466 24.0454 29.5447 24.0454 29.8555V31.6714C24.0454 32.4638 24.3602 33.2237 24.9205 33.784ZM24.4651 34.2395C25.1462 34.9206 26.07 35.3032 27.0332 35.3032C27.9964 35.3032 28.9202 34.9206 29.6013 34.2395C30.2824 33.5584 30.665 32.6346 30.665 31.6714V29.8555C30.665 29.3739 30.4737 28.912 30.1332 28.5714C29.7926 28.2309 29.3307 28.0396 28.8491 28.0396H25.2173C24.7357 28.0396 24.2738 28.2309 23.9332 28.5714C23.5927 28.912 23.4014 29.3739 23.4014 29.8555V31.6714C23.4014 32.6346 23.784 33.5584 24.4651 34.2395Z" fill="white"/>
<path d="M34.3861 8.71753H19.9303C18.9719 8.71753 18.0526 9.06328 17.3749 9.67871C16.6972 10.2941 16.3164 11.1289 16.3164 11.9992V23.4851C16.3164 25.661 17.2683 27.7477 18.9626 29.2863C20.657 30.8249 22.9551 31.6893 25.3512 31.6893H28.9652C31.3614 31.6893 33.6594 30.8249 35.3538 29.2863C37.0481 27.7477 38 25.661 38 23.4851V11.9992C38 11.1289 37.6193 10.2941 36.9415 9.67871C36.2638 9.06328 35.3446 8.71753 34.3861 8.71753Z" fill="white"/>
<path d="M20.8249 21.921C20.8249 22.348 20.6891 22.7576 20.4476 23.0595C20.206 23.3615 19.6637 23.5311 19.322 23.5311H16.9604V20.3108H19.322C19.6637 20.3108 20.206 20.4804 20.4476 20.7824C20.6891 21.0844 20.8249 21.4939 20.8249 21.921ZM20.8249 15.4803C20.8249 15.0532 20.6891 14.6437 20.4476 14.3417C20.206 14.0398 19.6637 13.8701 19.322 13.8701H16.9604V17.0905H19.322C19.6637 17.0905 20.206 16.9208 20.4476 16.6188C20.6891 16.3169 20.8249 15.9073 20.8249 15.4803Z" fill="#333333"/>
<path d="M35.1551 19.127C35.0853 18.7758 34.907 18.4963 34.6393 18.3191L34.6357 18.3168C34.5136 18.2376 34.3776 18.182 34.235 18.153L34.2193 18.1498C33.5494 18.023 32.7514 18.4509 32.2337 19.2147C31.8544 19.7731 31.6907 20.4236 31.7959 20.955C31.8655 21.3065 32.0442 21.586 32.3132 21.7635L32.3161 21.7654C32.4382 21.8445 32.5742 21.9001 32.7168 21.9292C33.391 22.0673 34.1962 21.6409 34.7225 20.8674C35.0984 20.3091 35.2605 19.6587 35.1551 19.127ZM31.7492 22.1808C31.4115 21.8705 31.0922 21.577 30.935 21.135C30.5019 19.9121 30.2403 19.1739 29.2016 18.9611C28.1628 18.7484 27.6311 19.324 26.7506 20.2778C26.4316 20.6228 26.0219 20.7672 25.5879 20.9205C25.0904 21.096 24.5763 21.2773 24.2678 21.7781C24.151 21.9575 24.0697 22.1576 24.0283 22.3677C23.8477 23.249 24.3873 24.1067 25.2306 24.2795C25.6658 24.3686 26.1598 24.3127 26.6826 24.2535C27.1852 24.1966 27.7048 24.1378 28.126 24.224C28.5472 24.3103 29.0006 24.5685 29.4387 24.8181C29.8953 25.0769 30.3253 25.3221 30.7617 25.4115C31.6038 25.584 32.4359 25.0073 32.6165 24.1259C32.6602 23.9162 32.6633 23.7001 32.6256 23.4892C32.539 22.9069 32.1374 22.5378 31.7492 22.1808ZM26.7794 17.567C26.9962 17.9928 27.3251 18.2702 27.7056 18.3481C27.7575 18.3588 27.8102 18.3656 27.8631 18.3684C28.6806 18.4143 29.3735 17.5472 29.4409 16.3926C29.4696 15.9072 29.3781 15.431 29.1849 15.0522C28.9685 14.6272 28.639 14.35 28.2588 14.2721C28.2069 14.2615 28.1542 14.2547 28.1012 14.2518C27.2838 14.206 26.5909 15.073 26.5235 16.2277C26.4947 16.7122 26.5863 17.188 26.7794 17.567ZM30.6656 18.9425C30.7154 18.9607 30.7664 18.9752 30.8184 18.9858C31.1991 19.0638 31.6104 18.9381 31.9771 18.6318C32.3034 18.3592 32.5737 17.9575 32.7389 17.5004C33.1308 16.4128 32.8347 15.3431 32.0651 15.0633C32.0153 15.0451 31.9642 15.0307 31.9123 15.02C31.5319 14.9426 31.12 15.0679 30.7539 15.3736C30.4274 15.6459 30.156 16.0478 29.9917 16.5059C29.5998 17.5935 29.8959 18.6632 30.6656 18.9425ZM25.2353 20.3149L25.239 20.3143C25.5556 20.2568 25.8295 20.0703 26.0314 19.7747C26.3373 19.3264 26.4427 18.6647 26.314 18.0023C26.1357 17.0855 25.5634 16.3766 24.8899 16.2387C24.7473 16.2092 24.6005 16.2069 24.4571 16.2317L24.4534 16.2322C24.1378 16.2889 23.8636 16.4765 23.6618 16.7721C23.3559 17.2203 23.2505 17.882 23.3792 18.5445C23.5574 19.4613 24.1298 20.1701 24.8032 20.3081C24.9456 20.3374 25.0921 20.3397 25.2353 20.3149Z" fill="#333333"/>
<path d="M12.558 25.0493C12.1287 22.2583 10.5526 20.2608 8.5567 18.9347C6.56078 17.6086 4.12024 17.1296 1.77114 17.6031C1.30132 17.6979 0.888449 17.9753 0.623206 18.3745C0.357963 18.7736 0.262193 19.2618 0.356903 19.7316C0.451613 20.2014 0.729035 20.6143 1.12822 20.8795C1.5274 21.1447 2.01551 21.2405 2.48533 21.1458C3.89479 20.8617 5.35912 21.1491 6.55666 21.9447C7.75421 22.7404 8.90828 23.9758 9.01561 25.9081L12.558 25.0493Z" fill="white"/>
<path d="M8.45892 13.3193L10.5471 13.3328C10.7618 13.3341 10.9369 13.1613 10.9383 12.9466L10.9406 12.5873C10.9419 12.3726 10.7691 12.1975 10.5544 12.1961L8.46622 12.1827L8.47964 10.0945C8.48102 9.87988 8.30814 9.70476 8.0935 9.70338L7.73415 9.70107C7.51951 9.69969 7.34439 9.87257 7.34301 10.0872L7.32959 12.1754L5.2414 12.162C5.02676 12.1606 4.85164 12.3335 4.85026 12.5481L4.84795 12.9075C4.84657 13.1221 5.01945 13.2972 5.2341 13.2986L7.32229 13.312L7.30887 15.4002C7.30749 15.6149 7.48037 15.79 7.69501 15.7914L8.05436 15.7937C8.269 15.7951 8.44412 15.6222 8.4455 15.4075L8.45892 13.3193Z" fill="#333333"/>
<path fill-rule="evenodd" clip-rule="evenodd" d="M8.45892 13.3194L10.5471 13.3328C10.7618 13.3342 10.9369 13.1613 10.9383 12.9467L10.9406 12.5873C10.9419 12.3727 10.7691 12.1976 10.5544 12.1962L8.46623 12.1828L8.47965 10.0946C8.48103 9.87994 8.30815 9.70483 8.0935 9.70345L7.73416 9.70114C7.51952 9.69976 7.3444 9.87264 7.34302 10.0873L7.3296 12.1755L5.24141 12.1621C5.02676 12.1607 4.85165 12.3336 4.85027 12.5482L4.84796 12.9075C4.84658 13.1222 5.01946 13.2973 5.2341 13.2987L7.32229 13.3121L7.30887 15.4003C7.30749 15.6149 7.48037 15.7901 7.69502 15.7914L8.05436 15.7937C8.26901 15.7951 8.44412 15.6222 8.4455 15.4076L8.45892 13.3194ZM6.6741 13.952L5.22996 13.9427C4.65962 13.9391 4.20024 13.4737 4.2039 12.9034L4.20621 12.5441C4.20988 11.9737 4.6752 11.5143 5.24555 11.518L6.68968 11.5273L6.69896 10.0831C6.70263 9.5128 7.16795 9.05342 7.7383 9.05708L8.09764 9.05939C8.66799 9.06306 9.12737 9.52838 9.1237 10.0987L9.11442 11.5429L10.5586 11.5521C11.1289 11.5558 11.5883 12.0211 11.5846 12.5915L11.5823 12.9508C11.5786 13.5212 11.1133 13.9805 10.543 13.9769L9.09884 13.9676L9.08956 15.4117C9.08589 15.9821 8.62057 16.4415 8.05022 16.4378L7.69088 16.4355C7.12053 16.4318 6.66115 15.9665 6.66482 15.3962L6.6741 13.952Z" fill="white"/>
<path d="M61.64 8.176H63.536V23.08H61.64V8.176ZM54.824 14.2H58.544V15.808H54.824V14.2ZM57.632 8.632H59.528V21.064H57.632V8.632ZM45.464 10.024H55.568V11.68H45.464V10.024ZM45.32 20.2L45.104 18.52C48.008 18.52 52.664 18.496 56.072 18.064L56.144 19.552C52.688 20.152 48.176 20.2 45.32 20.2ZM47.312 11.152H49.136V18.928H47.312V11.152ZM51.872 11.152H53.696V18.928H51.872V11.152ZM55.328 22.096H57.032V22.792C57.032 26.536 53.048 29.104 48.656 29.8L47.912 28.24C51.776 27.712 55.328 25.528 55.328 22.792V22.096ZM55.616 22.096H57.32V22.792C57.32 25.528 60.896 27.712 64.736 28.24L63.992 29.8C59.6 29.104 55.616 26.536 55.616 22.792V22.096ZM76.2781 16.384H80.3581V18.04H76.2781V16.384ZM68.0701 23.032H69.4621C72.7981 23.032 74.7901 22.96 77.1901 22.48L77.3821 24.112C74.9101 24.592 72.8461 24.664 69.4621 24.664H68.0701V23.032ZM68.0701 10.792H76.1101V12.4H69.9661V23.584H68.0701V10.792ZM69.3901 16.648H75.1261V18.232H69.3901V16.648ZM83.7661 8.176H85.6861V29.872H83.7661V8.176ZM79.3981 8.68H81.2941V28.768H79.3981V8.68ZM104.188 8.176H106.18V21.28H104.188V8.176ZM105.58 13.6H109.396V15.256H105.58V13.6ZM90.2923 18.4H91.9963C95.9323 18.4 98.7403 18.28 102.124 17.68L102.292 19.336C98.8603 19.912 96.0043 20.056 91.9963 20.056H90.2923V18.4ZM90.2443 9.52H100.012V15.424H92.2363V19.456H90.2923V13.864H98.0443V11.152H90.2443V9.52ZM99.2443 21.952C103.684 21.952 106.372 23.392 106.372 25.888C106.372 28.408 103.684 29.848 99.2443 29.848C94.8283 29.848 92.1163 28.408 92.1163 25.888C92.1163 23.392 94.8283 21.952 99.2443 21.952ZM99.2443 23.512C96.0043 23.512 94.0603 24.376 94.0603 25.888C94.0603 27.424 96.0043 28.288 99.2443 28.288C102.484 28.288 104.452 27.424 104.452 25.888C104.452 24.376 102.484 23.512 99.2443 23.512ZM111.434 18.856H131.042V20.488H111.434V18.856ZM120.242 15.376H122.21V19.528H120.242V15.376ZM113.906 14.752H128.762V16.384H113.906V14.752ZM113.906 9.16H128.594V10.768H115.874V15.712H113.906V9.16ZM121.202 22.048C125.834 22.048 128.642 23.464 128.642 25.936C128.642 28.456 125.834 29.848 121.202 29.848C116.57 29.848 113.762 28.456 113.762 25.936C113.762 23.464 116.57 22.048 121.202 22.048ZM121.202 23.584C117.818 23.584 115.778 24.448 115.778 25.936C115.778 27.448 117.818 28.288 121.202 28.288C124.61 28.288 126.626 27.448 126.626 25.936C126.626 24.448 124.61 23.584 121.202 23.584ZM142.297 18.424H144.265V21.76H142.297V18.424ZM133.489 17.32H153.097V18.928H133.489V17.32ZM136.033 8.896H150.553V15.496H136.033V8.896ZM148.609 10.48H138.001V13.912H148.609V10.48ZM135.865 21.04H150.601V25.912H137.881V28.552H135.913V24.472H148.633V22.576H135.865V21.04ZM135.913 28.072H151.249V29.632H135.913V28.072ZM165.839 11.704H171.959V13.336H165.839V11.704ZM165.839 16.144H171.959V17.8H165.839V16.144ZM156.647 9.496H158.615V12.952H164.495V9.496H166.439V19.72H156.647V9.496ZM158.615 14.56V18.112H164.495V14.56H158.615ZM171.431 8.176H173.423V21.304H171.431V8.176ZM166.295 21.736C170.759 21.736 173.519 23.248 173.519 25.792C173.519 28.36 170.759 29.824 166.295 29.824C161.807 29.824 159.047 28.36 159.047 25.792C159.047 23.248 161.807 21.736 166.295 21.736ZM166.295 23.32C163.031 23.32 161.039 24.208 161.039 25.792C161.039 27.352 163.031 28.264 166.295 28.264C169.559 28.264 171.551 27.352 171.551 25.792C171.551 24.208 169.559 23.32 166.295 23.32ZM183.813 19.096H185.805V23.92H183.813V19.096ZM193.437 8.176H195.429V24.688H193.437V8.176ZM180.621 27.76H195.957V29.392H180.621V27.76ZM180.621 23.08H182.613V28.216H180.621V23.08ZM177.813 19.84L177.549 18.208C181.557 18.208 186.933 18.16 191.541 17.56L191.685 19.024C187.005 19.768 181.749 19.84 177.813 19.84ZM189.021 20.992H193.941V22.456H189.021V20.992ZM184.605 9.064C187.773 9.064 189.933 10.552 189.933 12.832C189.933 15.136 187.773 16.624 184.605 16.624C181.413 16.624 179.253 15.136 179.253 12.832C179.253 10.552 181.413 9.064 184.605 9.064ZM184.605 10.552C182.565 10.552 181.149 11.44 181.149 12.832C181.149 14.224 182.565 15.112 184.605 15.112C186.621 15.112 188.037 14.224 188.037 12.832C188.037 11.44 186.621 10.552 184.605 10.552Z" fill="white"/>
<path d="M44.35 44V34.1045H47.1715C49.3855 34.1045 50.884 34.847 50.884 37.0205C50.884 39.0995 49.399 40.0715 47.2255 40.0715H45.6055V44H44.35ZM45.6055 39.059H47.077C48.805 39.059 49.642 38.4245 49.642 37.0205C49.642 35.576 48.7645 35.1305 47.0095 35.1305H45.6055V39.059ZM55.3328 44.189C53.3753 44.189 51.8228 42.758 51.8228 40.355C51.8228 37.9655 53.4293 36.494 55.1168 36.494C56.9798 36.494 58.0328 37.8305 58.0328 39.9365C58.0328 40.193 58.0193 40.4495 57.9788 40.6385H53.0378C53.1323 42.191 54.0773 43.2035 55.4813 43.2035C56.1833 43.2035 56.7638 42.974 57.3038 42.6095L57.7493 43.433C57.1013 43.8515 56.3318 44.189 55.3328 44.189ZM53.0243 39.7475H56.9528C56.9528 38.276 56.2913 37.4795 55.1303 37.4795C54.1043 37.4795 53.1863 38.303 53.0243 39.7475ZM61.9618 44.189C60.3958 44.189 59.8828 43.2035 59.8828 41.7455V37.6685H58.7893V36.7505L59.9368 36.6695L60.0718 34.604H61.1113V36.6695H63.0958V37.6685H61.1113V41.7725C61.1113 42.6635 61.3948 43.19 62.2453 43.19C62.5018 43.19 62.8393 43.082 63.0688 42.9875L63.3118 43.9055C62.9068 44.054 62.4208 44.189 61.9618 44.189ZM64.7962 37.5065L64.4452 36.926C65.2147 36.413 65.5927 35.9 65.5927 35.009L65.4037 34.0235L66.0382 34.793C65.8492 34.9685 65.6872 35.0495 65.4577 35.0495C65.0392 35.0495 64.6612 34.7795 64.6612 34.2935C64.6612 33.7805 64.9852 33.47 65.4577 33.47C66.0517 33.47 66.4027 33.956 66.4027 34.82C66.4027 36.0215 65.8492 36.8855 64.7962 37.5065ZM70.5071 44.189C68.5496 44.189 66.9971 42.758 66.9971 40.355C66.9971 37.9655 68.6036 36.494 70.2911 36.494C72.1541 36.494 73.2071 37.8305 73.2071 39.9365C73.2071 40.193 73.1936 40.4495 73.1531 40.6385H68.2121C68.3066 42.191 69.2516 43.2035 70.6556 43.2035C71.3576 43.2035 71.9381 42.974 72.4781 42.6095L72.9236 43.433C72.2756 43.8515 71.5061 44.189 70.5071 44.189ZM68.1986 39.7475H72.1271C72.1271 38.276 71.4656 37.4795 70.3046 37.4795C69.2786 37.4795 68.3606 38.303 68.1986 39.7475ZM75.0257 44V36.6695H76.0247L76.1462 38.006H76.1867C76.6862 37.0745 77.4422 36.494 78.2657 36.494C78.5897 36.494 78.8057 36.5345 79.0487 36.6425L78.8192 37.7225C78.5627 37.6415 78.4007 37.601 78.1037 37.601C77.4962 37.601 76.7402 38.0465 76.2542 39.302V44H75.0257ZM81.5516 44.189C80.3231 44.189 79.4051 43.4195 79.4051 42.0965C79.4051 40.5035 80.7821 39.707 83.9006 39.356C83.9006 38.411 83.6036 37.5065 82.4021 37.5065C81.5381 37.5065 80.7686 37.9115 80.2016 38.303L79.7156 37.439C80.3906 37.007 81.4166 36.494 82.5911 36.494C84.3866 36.494 85.1426 37.682 85.1426 39.5045V44H84.1301L84.0221 43.136H83.9681C83.2796 43.7165 82.4561 44.189 81.5516 44.189ZM81.8891 43.19C82.6046 43.19 83.1986 42.8525 83.9006 42.218V40.1795C81.4301 40.463 80.6066 41.0705 80.6066 42.0155C80.6066 42.8525 81.1736 43.19 81.8891 43.19ZM87.471 44V36.6695H88.47L88.5915 37.736H88.632C89.3205 37.0475 90.0765 36.494 91.089 36.494C92.628 36.494 93.33 37.493 93.33 39.356V44H92.088V39.518C92.088 38.141 91.6695 37.5605 90.6975 37.5605C89.955 37.5605 89.4285 37.952 88.6995 38.681V44H87.471ZM97.5283 44L100.876 34.1045H102.28L105.628 44H104.319L102.577 38.465C102.226 37.358 101.916 36.278 101.592 35.1305H101.538C101.214 36.278 100.903 37.358 100.539 38.465L98.7973 44H97.5283ZM99.2833 40.976V39.9905H103.846V40.976H99.2833ZM106.943 44V36.6695H107.942L108.064 37.736H108.104C108.793 37.0475 109.549 36.494 110.561 36.494C112.1 36.494 112.802 37.493 112.802 39.356V44H111.56V39.518C111.56 38.141 111.142 37.5605 110.17 37.5605C109.427 37.5605 108.901 37.952 108.172 38.681V44H106.943ZM115.183 44V36.6695H116.411V44H115.183ZM115.804 35.1575C115.318 35.1575 114.98 34.847 114.98 34.334C114.98 33.8615 115.318 33.551 115.804 33.551C116.276 33.551 116.627 33.8615 116.627 34.334C116.627 34.847 116.276 35.1575 115.804 35.1575ZM118.901 44V36.6695H119.9L120.021 37.736H120.062C120.696 37.0475 121.466 36.494 122.343 36.494C123.464 36.494 124.071 37.0205 124.355 37.8845C125.124 37.0745 125.894 36.494 126.785 36.494C128.283 36.494 129.012 37.493 129.012 39.356V44H127.784V39.518C127.784 38.141 127.352 37.5605 126.407 37.5605C125.84 37.5605 125.259 37.9385 124.571 38.681V44H123.342V39.518C123.342 38.141 122.91 37.5605 121.965 37.5605C121.412 37.5605 120.791 37.9385 120.129 38.681V44H118.901ZM133.086 44.189C131.858 44.189 130.94 43.4195 130.94 42.0965C130.94 40.5035 132.317 39.707 135.435 39.356C135.435 38.411 135.138 37.5065 133.937 37.5065C133.073 37.5065 132.303 37.9115 131.736 38.303L131.25 37.439C131.925 37.007 132.951 36.494 134.126 36.494C135.921 36.494 136.677 37.682 136.677 39.5045V44H135.665L135.557 43.136H135.503C134.814 43.7165 133.991 44.189 133.086 44.189ZM133.424 43.19C134.139 43.19 134.733 42.8525 135.435 42.218V40.1795C132.965 40.463 132.141 41.0705 132.141 42.0155C132.141 42.8525 132.708 43.19 133.424 43.19ZM140.302 44.189C139.37 44.189 139.006 43.595 139.006 42.542V33.2675H140.234V42.623C140.234 43.0145 140.396 43.163 140.585 43.163C140.639 43.163 140.693 43.163 140.842 43.136L141.004 44.081C140.828 44.135 140.639 44.189 140.302 44.189ZM145.969 44V34.1045H147.225V38.249H151.842V34.1045H153.084V44H151.842V39.3425H147.225V44H145.969ZM158.531 44.189C156.722 44.189 155.129 42.7715 155.129 40.355C155.129 37.898 156.722 36.494 158.531 36.494C160.327 36.494 161.92 37.898 161.92 40.355C161.92 42.7715 160.327 44.189 158.531 44.189ZM158.531 43.163C159.8 43.163 160.651 42.029 160.651 40.355C160.651 38.654 159.8 37.52 158.531 37.52C157.249 37.52 156.398 38.654 156.398 40.355C156.398 42.029 157.249 43.163 158.531 43.163ZM165.721 44.189C164.682 44.189 163.669 43.7435 162.981 43.1765L163.588 42.353C164.223 42.866 164.871 43.2305 165.748 43.2305C166.72 43.2305 167.206 42.7175 167.206 42.0695C167.206 41.327 166.329 40.9895 165.519 40.6925C164.506 40.301 163.386 39.815 163.386 38.5595C163.386 37.3985 164.317 36.494 165.91 36.494C166.815 36.494 167.625 36.8585 168.192 37.3175L167.598 38.1005C167.098 37.736 166.572 37.4525 165.924 37.4525C164.992 37.4525 164.574 37.9385 164.574 38.5055C164.574 39.2075 165.316 39.4775 166.153 39.7745C167.22 40.1795 168.381 40.6115 168.381 42.002C168.381 43.2035 167.449 44.189 165.721 44.189ZM170.119 47.0915V36.6695H171.118L171.239 37.52H171.28C171.941 36.9665 172.751 36.494 173.602 36.494C175.505 36.494 176.518 37.9655 176.518 40.2335C176.518 42.731 175.019 44.189 173.332 44.189C172.67 44.189 171.982 43.8785 171.32 43.3385L171.347 44.621V47.0915H170.119ZM173.143 43.1495C174.344 43.1495 175.249 42.056 175.249 40.247C175.249 38.6135 174.695 37.52 173.305 37.52C172.684 37.52 172.063 37.871 171.347 38.5325V42.3935C172.009 42.947 172.657 43.1495 173.143 43.1495ZM178.491 44V36.6695H179.719V44H178.491ZM179.112 35.1575C178.626 35.1575 178.288 34.847 178.288 34.334C178.288 33.8615 178.626 33.551 179.112 33.551C179.584 33.551 179.935 33.8615 179.935 34.334C179.935 34.847 179.584 35.1575 179.112 35.1575ZM184.503 44.189C182.937 44.189 182.424 43.2035 182.424 41.7455V37.6685H181.331V36.7505L182.478 36.6695L182.613 34.604H183.653V36.6695H185.637V37.6685H183.653V41.7725C183.653 42.6635 183.936 43.19 184.787 43.19C185.043 43.19 185.381 43.082 185.61 42.9875L185.853 43.9055C185.448 44.054 184.962 44.189 184.503 44.189ZM188.616 44.189C187.387 44.189 186.469 43.4195 186.469 42.0965C186.469 40.5035 187.846 39.707 190.965 39.356C190.965 38.411 190.668 37.5065 189.466 37.5065C188.602 37.5065 187.833 37.9115 187.266 38.303L186.78 37.439C187.455 37.007 188.481 36.494 189.655 36.494C191.451 36.494 192.207 37.682 192.207 39.5045V44H191.194L191.086 43.136H191.032C190.344 43.7165 189.52 44.189 188.616 44.189ZM188.953 43.19C189.669 43.19 190.263 42.8525 190.965 42.218V40.1795C188.494 40.463 187.671 41.0705 187.671 42.0155C187.671 42.8525 188.238 43.19 188.953 43.19ZM195.831 44.189C194.899 44.189 194.535 43.595 194.535 42.542V33.2675H195.763V42.623C195.763 43.0145 195.925 43.163 196.114 43.163C196.168 43.163 196.222 43.163 196.371 43.136L196.533 44.081C196.357 44.135 196.168 44.189 195.831 44.189Z" fill="white"/>
</svg>
