<svg width="281" height="68" viewBox="0 0 281 68" fill="none" xmlns="http://www.w3.org/2000/svg">
<path d="M30.4031 65.0471H33.4464C37.4821 65.0471 41.3525 63.4439 44.2061 60.5902C47.0598 57.7366 48.663 53.8662 48.663 49.8305C48.663 49.0234 48.3423 48.2493 47.7716 47.6786C47.2009 47.1078 46.4268 46.7872 45.6197 46.7872C44.8125 46.7872 44.0384 47.1078 43.4677 47.6786C42.897 48.2493 42.5763 49.0234 42.5763 49.8305C42.5763 52.2519 41.6145 54.5742 39.9023 56.2864C38.1901 57.9985 35.8678 58.9605 33.4464 58.9605H30.4031C27.9817 58.9605 25.6594 57.9985 23.9472 56.2864C22.2351 54.5742 21.2732 52.2519 21.2732 49.8305V37.4463C21.2732 34.1921 21.0002 32.9549 20.4295 32.3842C19.8104 31.7652 15.1865 29.8531 15.1865 34.7345V49.8305C15.1865 53.8662 16.7897 57.7366 19.6434 60.5902C22.497 63.4439 26.3674 65.0471 30.4031 65.0471Z" fill="#141414"/>
<path d="M45.5294 51.6685C43.9071 51.6685 42.3513 51.0241 41.2042 49.877C40.057 48.7299 39.4126 47.1741 39.4126 45.5518V42.4934C39.4126 41.6823 39.7348 40.9044 40.3084 40.3308C40.8819 39.7572 41.6598 39.435 42.471 39.435H48.5877C49.3989 39.435 50.1768 39.7572 50.7503 40.3308C51.3239 40.9044 51.6461 41.6823 51.6461 42.4934V45.5518C51.6461 47.1741 51.0017 48.7299 49.8546 49.877C48.7074 51.0241 47.1516 51.6685 45.5294 51.6685Z" fill="white"/>
<path fill-rule="evenodd" clip-rule="evenodd" d="M41.9712 49.11C42.9149 50.0536 44.1948 50.5838 45.5294 50.5838C46.8639 50.5838 48.1438 50.0536 49.0875 49.11C50.0312 48.1663 50.5614 46.8864 50.5614 45.5518V42.4934C50.5614 41.97 50.3534 41.468 49.9833 41.0978C49.6132 40.7277 49.1112 40.5198 48.5877 40.5198H42.471C41.9475 40.5198 41.4455 40.7277 41.0754 41.0978C40.7053 41.468 40.4973 41.97 40.4973 42.4934V45.5518C40.4973 46.8864 41.0275 48.1663 41.9712 49.11ZM41.2042 49.877C42.3513 51.0241 43.9071 51.6685 45.5294 51.6685C47.1516 51.6685 48.7074 51.0241 49.8546 49.877C51.0017 48.7299 51.6461 47.1741 51.6461 45.5518V42.4934C51.6461 41.6823 51.3239 40.9044 50.7503 40.3308C50.1768 39.7572 49.3989 39.435 48.5877 39.435H42.471C41.6598 39.435 40.8819 39.7572 40.3084 40.3308C39.7348 40.9044 39.4126 41.6823 39.4126 42.4934V45.5518C39.4126 47.1741 40.057 48.7299 41.2042 49.877Z" fill="#141414"/>
<path d="M57.9136 6.89267H33.5671C31.9528 6.89267 30.4047 7.47498 29.2632 8.5115C28.1217 9.54802 27.4805 10.9538 27.4805 12.4197V31.7643C27.4805 35.429 29.0836 38.9436 31.9373 41.5349C34.791 44.1262 38.6614 45.5819 42.697 45.5819H48.7837C52.8194 45.5819 56.6897 44.1262 59.5434 41.5349C62.3971 38.9436 64.0002 35.429 64.0002 31.7643V12.4197C64.0002 10.9538 63.359 9.54802 62.2175 8.5115C61.076 7.47498 59.5279 6.89267 57.9136 6.89267Z" fill="#FF7F00"/>
<path fill-rule="evenodd" clip-rule="evenodd" d="M57.9136 7.89267H33.5671C32.1886 7.89267 30.8836 8.39082 29.9355 9.25182C28.9905 10.1099 28.4805 11.2519 28.4805 12.4197V31.7643C28.4805 35.131 29.9524 38.3817 32.6096 40.7945C35.2699 43.2103 38.8971 44.5819 42.697 44.5819H48.7837C52.5836 44.5819 56.2108 43.2103 58.8712 40.7945C61.5283 38.3817 63.0002 35.131 63.0002 31.7643V12.4197C63.0002 11.2519 62.4902 10.1099 61.5452 9.25182C60.5971 8.39082 59.2921 7.89267 57.9136 7.89267ZM33.5671 6.89267H57.9136C59.5279 6.89267 61.076 7.47498 62.2175 8.5115C63.359 9.54802 64.0002 10.9538 64.0002 12.4197V31.7643C64.0002 35.429 62.3971 38.9436 59.5434 41.5349C56.6897 44.1262 52.8194 45.5819 48.7837 45.5819H42.697C38.6614 45.5819 34.791 44.1262 31.9373 41.5349C29.0836 38.9436 27.4805 35.429 27.4805 31.7643V12.4197C27.4805 10.9538 28.1217 9.54802 29.2632 8.5115C30.4047 7.47498 31.9528 6.89267 33.5671 6.89267Z" fill="#141414"/>
<path d="M35.0734 29.1299C35.0734 29.8492 34.8448 30.5389 34.438 31.0475C34.0311 31.5561 33.1177 31.8418 32.5423 31.8418H28.5649V26.4181H32.5423C33.1177 26.4181 34.0311 26.7038 34.438 27.2124C34.8448 27.7209 35.0734 28.4107 35.0734 29.1299ZM35.0734 18.2825C35.0734 17.5633 34.8448 16.8735 34.438 16.3649C34.0311 15.8563 33.1177 15.5706 32.5423 15.5706H28.5649V20.9943H32.5423C33.1177 20.9943 34.0311 20.7086 34.438 20.2001C34.8448 19.6915 35.0734 19.0017 35.0734 18.2825Z" fill="white"/>
<path fill-rule="evenodd" clip-rule="evenodd" d="M27.5649 32.8418V25.4181H32.5423C32.9719 25.4181 33.4659 25.5195 33.9122 25.6911C34.3478 25.8586 34.8606 26.1399 35.2189 26.5877C35.7825 27.2923 36.0734 28.2088 36.0734 29.1299C36.0734 30.0511 35.7825 30.9676 35.2189 31.6722C34.8606 32.12 34.3478 32.4013 33.9122 32.5688C33.4659 32.7404 32.9719 32.8418 32.5423 32.8418H27.5649ZM27.5649 14.5706H32.5423C32.9719 14.5706 33.4659 14.6721 33.9122 14.8437C34.3478 15.0111 34.8606 15.2925 35.2189 15.7402C35.7825 16.4448 36.0734 17.3614 36.0734 18.2825C36.0734 19.2036 35.7825 20.1202 35.2189 20.8248C34.8606 21.2725 34.3478 21.5539 33.9122 21.7213C33.4659 21.8929 32.9719 21.9943 32.5423 21.9943H27.5649V14.5706ZM28.5649 20.9943V15.5706H32.5423C33.1177 15.5706 34.0311 15.8563 34.438 16.3649C34.8448 16.8735 35.0734 17.5633 35.0734 18.2825C35.0734 19.0017 34.8448 19.6915 34.438 20.2001C34.0311 20.7086 33.1177 20.9943 32.5423 20.9943H28.5649ZM34.438 31.0475C34.8448 30.5389 35.0734 29.8492 35.0734 29.1299C35.0734 28.4107 34.8448 27.7209 34.438 27.2124C34.0311 26.7038 33.1177 26.4181 32.5423 26.4181H28.5649V31.8418H32.5423C33.1177 31.8418 34.0311 31.5561 34.438 31.0475Z" fill="#141414"/>
<path d="M59.2085 24.4244C59.0909 23.8329 58.7906 23.3622 58.3398 23.0638L58.3337 23.0599C58.128 22.9265 57.899 22.8329 57.6588 22.784L57.6324 22.7786C56.5042 22.5651 55.1601 23.2858 54.2882 24.5721C53.6494 25.5125 53.3738 26.6082 53.5509 27.5033C53.668 28.0952 53.9691 28.566 54.422 28.8648L54.427 28.868C54.6327 29.0013 54.8616 29.0949 55.1018 29.1439C56.2373 29.3765 57.5934 28.6583 58.4798 27.3556C59.113 26.4153 59.386 25.32 59.2085 24.4244ZM53.4722 29.5677C52.9034 29.0451 52.3658 28.5507 52.1009 27.8064C51.3715 25.7468 50.931 24.5035 49.1815 24.1451C47.432 23.7867 46.5364 24.7563 45.0535 26.3627C44.5163 26.9436 43.8263 27.1869 43.0954 27.445C42.2574 27.7406 41.3916 28.046 40.872 28.8895C40.6753 29.1916 40.5384 29.5287 40.4686 29.8824C40.1645 31.3668 41.0732 32.8114 42.4936 33.1023C43.2265 33.2525 44.0585 33.1583 44.9389 33.0586C45.7855 32.9627 46.6607 32.8636 47.37 33.0089C48.0794 33.1542 48.8431 33.589 49.5808 34.0095C50.3498 34.4454 51.0741 34.8583 51.809 35.0089C53.2274 35.2994 54.6288 34.3281 54.9329 32.8437C55.0065 32.4905 55.0117 32.1265 54.9482 31.7713C54.8024 30.7906 54.1261 30.1689 53.4722 29.5677ZM45.102 21.7972C45.4671 22.5143 46.0211 22.9814 46.6619 23.1127C46.7494 23.1306 46.8381 23.142 46.9272 23.1468C48.3041 23.2241 49.471 21.7637 49.5845 19.8191C49.6328 19.0016 49.4788 18.1995 49.1534 17.5615C48.7889 16.8458 48.234 16.379 47.5936 16.2478C47.5062 16.2298 47.4175 16.2184 47.3283 16.2136C45.9515 16.1364 44.7845 17.5967 44.671 19.5414C44.6225 20.3575 44.7768 21.1587 45.102 21.7972ZM51.6471 24.1137C51.731 24.1443 51.817 24.1687 51.9045 24.1866C52.5458 24.318 53.2384 24.1062 53.856 23.5904C54.4057 23.1312 54.8609 22.4548 55.1391 21.6849C55.7991 19.8531 55.3004 18.0515 54.0043 17.5804C53.9204 17.5497 53.8344 17.5253 53.7469 17.5074C53.1063 17.377 52.4126 17.5881 51.796 18.1029C51.246 18.5616 50.789 19.2385 50.5122 20.01C49.8521 21.8418 50.3508 23.6434 51.6471 24.1137ZM42.5015 26.425L42.5077 26.4242C43.0408 26.3273 43.5023 26.0131 43.8422 25.5153C44.3573 24.7603 44.5349 23.6458 44.3181 22.5302C44.0179 20.9861 43.054 19.7922 41.9197 19.5599C41.6796 19.5103 41.4323 19.5063 41.1907 19.5482L41.1845 19.5491C40.653 19.6445 40.1912 19.9604 39.8513 20.4582C39.3361 21.2132 39.1586 22.3277 39.3753 23.4433C39.6755 24.9874 40.6395 26.1813 41.7737 26.4136C42.0135 26.4629 42.2603 26.4668 42.5015 26.425Z" fill="#141414"/>
<path d="M21.1505 34.3988C20.4274 29.6982 17.773 26.3339 14.4115 24.1005C11.0499 21.867 6.93953 21.0603 2.98315 21.8579C2.19187 22.0174 1.49651 22.4847 1.04979 23.157C0.603065 23.8293 0.441768 24.6514 0.601279 25.4427C0.76079 26.2339 1.22803 26.9293 1.90034 27.376C2.57264 27.8227 3.39472 27.984 4.186 27.8245C6.55983 27.346 9.02606 27.83 11.043 29.17C13.0599 30.5101 15.0036 32.5908 15.1844 35.8451L21.1505 34.3988Z" fill="#141414"/>
<path d="M14.2464 14.6431L17.7633 14.6657C18.1249 14.668 18.4198 14.3769 18.4221 14.0154L18.426 13.4102C18.4283 13.0486 18.1372 12.7537 17.7757 12.7514L14.2587 12.7288L14.2813 9.21183C14.2836 8.85032 13.9925 8.55539 13.6309 8.55307L13.0257 8.54918C12.6642 8.54685 12.3693 8.83802 12.367 9.19953L12.3444 12.7165L8.82742 12.6939C8.46591 12.6916 8.17098 12.9827 8.16865 13.3442L8.16476 13.9494C8.16244 14.3109 8.45361 14.6059 8.81511 14.6082L12.3321 14.6308L12.3095 18.1478C12.3071 18.5093 12.5983 18.8042 12.9598 18.8065L13.565 18.8104C13.9265 18.8127 14.2215 18.5216 14.2238 18.1601L14.2464 14.6431Z" fill="#FF6960"/>
<path fill-rule="evenodd" clip-rule="evenodd" d="M14.2468 14.6431L17.7637 14.6657C18.1252 14.668 18.4202 14.3769 18.4225 14.0154L18.4264 13.4102C18.4287 13.0486 18.1376 12.7537 17.776 12.7514L14.2591 12.7288L14.2817 9.21183C14.284 8.85033 13.9928 8.55539 13.6313 8.55307L13.0261 8.54918C12.6646 8.54686 12.3697 8.83802 12.3674 9.19953L12.3448 12.7165L8.82781 12.6939C8.46631 12.6916 8.17137 12.9827 8.16905 13.3442L8.16516 13.9494C8.16284 14.3109 8.454 14.6059 8.81551 14.6082L12.3325 14.6308L12.3099 18.1478C12.3075 18.5093 12.5987 18.8042 12.9602 18.8065L13.5654 18.8104C13.9269 18.8127 14.2219 18.5216 14.2242 18.1601L14.2468 14.6431ZM11.2408 15.7086L8.80854 15.6929C7.84796 15.6868 7.07426 14.9031 7.08044 13.9425L7.08433 13.3373C7.0905 12.3767 7.8742 11.603 8.83478 11.6092L11.267 11.6248L11.2826 9.19256C11.2888 8.23198 12.0725 7.45828 13.0331 7.46446L13.6383 7.46835C14.5989 7.47452 15.3726 8.25822 15.3664 9.2188L15.3508 11.651L17.783 11.6667C18.7436 11.6728 19.5173 12.4565 19.5111 13.4171L19.5072 14.0223C19.5011 14.9829 18.7174 15.7566 17.7568 15.7504L15.3245 15.7348L15.3089 18.167C15.3027 19.1276 14.519 19.9013 13.5585 19.8951L12.9532 19.8913C11.9927 19.8851 11.219 19.1014 11.2251 18.1408L11.2408 15.7086Z" fill="#141414"/>
<path d="M97.52 10.568H100.048V30.44H97.52V10.568ZM88.432 18.6H93.392V20.744H88.432V18.6ZM92.176 11.176H94.704V27.752H92.176V11.176ZM75.952 13.032H89.424V15.24H75.952V13.032ZM75.76 26.6L75.472 24.36C79.344 24.36 85.552 24.328 90.096 23.752L90.192 25.736C85.584 26.536 79.568 26.6 75.76 26.6ZM78.416 14.536H80.848V24.904H78.416V14.536ZM84.496 14.536H86.928V24.904H84.496V14.536ZM89.104 29.128H91.376V30.056C91.376 35.048 86.064 38.472 80.208 39.4L79.216 37.32C84.368 36.616 89.104 33.704 89.104 30.056V29.128ZM89.488 29.128H91.76V30.056C91.76 33.704 96.528 36.616 101.648 37.32L100.656 39.4C94.8 38.472 89.488 35.048 89.488 30.056V29.128ZM117.038 21.512H122.478V23.72H117.038V21.512ZM106.094 30.376H107.95C112.398 30.376 115.054 30.28 118.254 29.64L118.51 31.816C115.214 32.456 112.462 32.552 107.95 32.552H106.094V30.376ZM106.094 14.056H116.814V16.2H108.622V31.112H106.094V14.056ZM107.854 21.864H115.502V23.976H107.854V21.864ZM127.022 10.568H129.582V39.496H127.022V10.568ZM121.198 11.24H123.726V38.024H121.198V11.24ZM154.251 10.568H156.907V28.04H154.251V10.568ZM156.107 17.8H161.195V20.008H156.107V17.8ZM135.723 24.2H137.995C143.243 24.2 146.987 24.04 151.499 23.24L151.723 25.448C147.147 26.216 143.339 26.408 137.995 26.408H135.723V24.2ZM135.659 12.36H148.683V20.232H138.315V25.608H135.723V18.152H146.059V14.536H135.659V12.36ZM147.659 28.936C153.579 28.936 157.163 30.856 157.163 34.184C157.163 37.544 153.579 39.464 147.659 39.464C141.771 39.464 138.155 37.544 138.155 34.184C138.155 30.856 141.771 28.936 147.659 28.936ZM147.659 31.016C143.339 31.016 140.747 32.168 140.747 34.184C140.747 36.232 143.339 37.384 147.659 37.384C151.979 37.384 154.603 36.232 154.603 34.184C154.603 32.168 151.979 31.016 147.659 31.016ZM163.913 24.808H190.057V26.984H163.913V24.808ZM175.657 20.168H178.281V25.704H175.657V20.168ZM167.209 19.336H187.017V21.512H167.209V19.336ZM167.209 11.88H186.793V14.024H169.833V20.616H167.209V11.88ZM176.937 29.064C183.113 29.064 186.857 30.952 186.857 34.248C186.857 37.608 183.113 39.464 176.937 39.464C170.76 39.464 167.016 37.608 167.016 34.248C167.016 30.952 170.76 29.064 176.937 29.064ZM176.937 31.112C172.425 31.112 169.705 32.264 169.705 34.248C169.705 36.264 172.425 37.384 176.937 37.384C181.481 37.384 184.169 36.264 184.169 34.248C184.169 32.264 181.481 31.112 176.937 31.112ZM205.062 24.232H207.686V28.68H205.062V24.232ZM193.318 22.76H219.462V24.904H193.318V22.76ZM196.71 11.528H216.07V20.328H196.71V11.528ZM213.478 13.64H199.334V18.216H213.478V13.64ZM196.486 27.72H216.134V34.216H199.174V37.736H196.55V32.296H213.51V29.768H196.486V27.72ZM196.55 37.096H216.998V39.176H196.55V37.096ZM236.452 15.272H244.612V17.448H236.452V15.272ZM236.452 21.192H244.612V23.4H236.452V21.192ZM224.196 12.328H226.82V16.936H234.66V12.328H237.252V25.96H224.196V12.328ZM226.82 19.08V23.816H234.66V19.08H226.82ZM243.908 10.568H246.564V28.072H243.908V10.568ZM237.06 28.648C243.012 28.648 246.692 30.664 246.692 34.056C246.692 37.48 243.012 39.432 237.06 39.432C231.076 39.432 227.396 37.48 227.396 34.056C227.396 30.664 231.076 28.648 237.06 28.648ZM237.06 30.76C232.708 30.76 230.052 31.944 230.052 34.056C230.052 36.136 232.708 37.352 237.06 37.352C241.412 37.352 244.068 36.136 244.068 34.056C244.068 31.944 241.412 30.76 237.06 30.76ZM260.417 25.128H263.073V31.56H260.417V25.128ZM273.249 10.568H275.905V32.584H273.249V10.568ZM256.161 36.68H276.609V38.856H256.161V36.68ZM256.161 30.44H258.817V37.288H256.161V30.44ZM252.417 26.12L252.065 23.944C257.409 23.944 264.577 23.88 270.721 23.08L270.913 25.032C264.673 26.024 257.665 26.12 252.417 26.12ZM267.361 27.656H273.921V29.608H267.361V27.656ZM261.473 11.752C265.697 11.752 268.577 13.736 268.577 16.776C268.577 19.848 265.697 21.832 261.473 21.832C257.217 21.832 254.337 19.848 254.337 16.776C254.337 13.736 257.217 11.752 261.473 11.752ZM261.473 13.736C258.753 13.736 256.865 14.92 256.865 16.776C256.865 18.632 258.753 19.816 261.473 19.816C264.161 19.816 266.049 18.632 266.049 16.776C266.049 14.92 264.161 13.736 261.473 13.736Z" fill="#141414"/>
<path d="M74.8 59V45.806H78.562C81.514 45.806 83.512 46.796 83.512 49.694C83.512 52.466 81.532 53.762 78.634 53.762H76.474V59H74.8ZM76.474 52.412H78.436C80.74 52.412 81.856 51.566 81.856 49.694C81.856 47.768 80.686 47.174 78.346 47.174H76.474V52.412ZM89.4437 59.252C86.8337 59.252 84.7637 57.344 84.7637 54.14C84.7637 50.954 86.9057 48.992 89.1557 48.992C91.6397 48.992 93.0437 50.774 93.0437 53.582C93.0437 53.924 93.0257 54.266 92.9717 54.518H86.3837C86.5097 56.588 87.7697 57.938 89.6417 57.938C90.5777 57.938 91.3517 57.632 92.0717 57.146L92.6657 58.244C91.8017 58.802 90.7757 59.252 89.4437 59.252ZM86.3657 53.33H91.6037C91.6037 51.368 90.7217 50.306 89.1737 50.306C87.8057 50.306 86.5817 51.404 86.3657 53.33ZM98.2824 59.252C96.1944 59.252 95.5104 57.938 95.5104 55.994V50.558H94.0524V49.334L95.5824 49.226L95.7624 46.472H97.1484V49.226H99.7944V50.558H97.1484V56.03C97.1484 57.218 97.5264 57.92 98.6604 57.92C99.0024 57.92 99.4524 57.776 99.7584 57.65L100.082 58.874C99.5424 59.072 98.8944 59.252 98.2824 59.252ZM102.062 50.342L101.594 49.568C102.62 48.884 103.124 48.2 103.124 47.012L102.872 45.698L103.718 46.724C103.466 46.958 103.25 47.066 102.944 47.066C102.386 47.066 101.882 46.706 101.882 46.058C101.882 45.374 102.314 44.96 102.944 44.96C103.736 44.96 104.204 45.608 104.204 46.76C104.204 48.362 103.466 49.514 102.062 50.342ZM109.676 59.252C107.066 59.252 104.996 57.344 104.996 54.14C104.996 50.954 107.138 48.992 109.388 48.992C111.872 48.992 113.276 50.774 113.276 53.582C113.276 53.924 113.258 54.266 113.204 54.518H106.616C106.742 56.588 108.002 57.938 109.874 57.938C110.81 57.938 111.584 57.632 112.304 57.146L112.898 58.244C112.034 58.802 111.008 59.252 109.676 59.252ZM106.598 53.33H111.836C111.836 51.368 110.954 50.306 109.406 50.306C108.038 50.306 106.814 51.404 106.598 53.33ZM115.701 59V49.226H117.033L117.195 51.008H117.249C117.915 49.766 118.923 48.992 120.021 48.992C120.453 48.992 120.741 49.046 121.065 49.19L120.759 50.63C120.417 50.522 120.201 50.468 119.805 50.468C118.995 50.468 117.987 51.062 117.339 52.736V59H115.701ZM124.402 59.252C122.764 59.252 121.54 58.226 121.54 56.462C121.54 54.338 123.376 53.276 127.534 52.808C127.534 51.548 127.138 50.342 125.536 50.342C124.384 50.342 123.358 50.882 122.602 51.404L121.954 50.252C122.854 49.676 124.222 48.992 125.788 48.992C128.182 48.992 129.19 50.576 129.19 53.006V59H127.84L127.696 57.848H127.624C126.706 58.622 125.608 59.252 124.402 59.252ZM124.852 57.92C125.806 57.92 126.598 57.47 127.534 56.624V53.906C124.24 54.284 123.142 55.094 123.142 56.354C123.142 57.47 123.898 57.92 124.852 57.92ZM132.295 59V49.226H133.627L133.789 50.648H133.843C134.761 49.73 135.769 48.992 137.119 48.992C139.171 48.992 140.107 50.324 140.107 52.808V59H138.451V53.024C138.451 51.188 137.893 50.414 136.597 50.414C135.607 50.414 134.905 50.936 133.933 51.908V59H132.295ZM145.704 59L150.168 45.806H152.04L156.504 59H154.758L152.436 51.62C151.968 50.144 151.554 48.704 151.122 47.174H151.05C150.618 48.704 150.204 50.144 149.718 51.62L147.396 59H145.704ZM148.044 54.968V53.654H154.128V54.968H148.044ZM158.258 59V49.226H159.59L159.752 50.648H159.806C160.724 49.73 161.732 48.992 163.082 48.992C165.134 48.992 166.07 50.324 166.07 52.808V59H164.414V53.024C164.414 51.188 163.856 50.414 162.56 50.414C161.57 50.414 160.868 50.936 159.896 51.908V59H158.258ZM169.244 59V49.226H170.882V59H169.244ZM170.072 47.21C169.424 47.21 168.974 46.796 168.974 46.112C168.974 45.482 169.424 45.068 170.072 45.068C170.702 45.068 171.17 45.482 171.17 46.112C171.17 46.796 170.702 47.21 170.072 47.21ZM174.201 59V49.226H175.533L175.695 50.648H175.749C176.595 49.73 177.621 48.992 178.791 48.992C180.285 48.992 181.095 49.694 181.473 50.846C182.499 49.766 183.525 48.992 184.713 48.992C186.711 48.992 187.683 50.324 187.683 52.808V59H186.045V53.024C186.045 51.188 185.469 50.414 184.209 50.414C183.453 50.414 182.679 50.918 181.761 51.908V59H180.123V53.024C180.123 51.188 179.547 50.414 178.287 50.414C177.549 50.414 176.721 50.918 175.839 51.908V59H174.201ZM193.115 59.252C191.477 59.252 190.253 58.226 190.253 56.462C190.253 54.338 192.089 53.276 196.247 52.808C196.247 51.548 195.851 50.342 194.249 50.342C193.097 50.342 192.071 50.882 191.315 51.404L190.667 50.252C191.567 49.676 192.935 48.992 194.501 48.992C196.895 48.992 197.903 50.576 197.903 53.006V59H196.553L196.409 57.848H196.337C195.419 58.622 194.321 59.252 193.115 59.252ZM193.565 57.92C194.519 57.92 195.311 57.47 196.247 56.624V53.906C192.953 54.284 191.855 55.094 191.855 56.354C191.855 57.47 192.611 57.92 193.565 57.92ZM202.736 59.252C201.494 59.252 201.008 58.46 201.008 57.056V44.69H202.646V57.164C202.646 57.686 202.862 57.884 203.114 57.884C203.186 57.884 203.258 57.884 203.456 57.848L203.672 59.108C203.438 59.18 203.186 59.252 202.736 59.252ZM210.292 59V45.806H211.966V51.332H218.122V45.806H219.778V59H218.122V52.79H211.966V59H210.292ZM227.042 59.252C224.63 59.252 222.506 57.362 222.506 54.14C222.506 50.864 224.63 48.992 227.042 48.992C229.436 48.992 231.56 50.864 231.56 54.14C231.56 57.362 229.436 59.252 227.042 59.252ZM227.042 57.884C228.734 57.884 229.868 56.372 229.868 54.14C229.868 51.872 228.734 50.36 227.042 50.36C225.332 50.36 224.198 51.872 224.198 54.14C224.198 56.372 225.332 57.884 227.042 57.884ZM236.628 59.252C235.242 59.252 233.892 58.658 232.974 57.902L233.784 56.804C234.63 57.488 235.494 57.974 236.664 57.974C237.96 57.974 238.608 57.29 238.608 56.426C238.608 55.436 237.438 54.986 236.358 54.59C235.008 54.068 233.514 53.42 233.514 51.746C233.514 50.198 234.756 48.992 236.88 48.992C238.086 48.992 239.166 49.478 239.922 50.09L239.13 51.134C238.464 50.648 237.762 50.27 236.898 50.27C235.656 50.27 235.098 50.918 235.098 51.674C235.098 52.61 236.088 52.97 237.204 53.366C238.626 53.906 240.174 54.482 240.174 56.336C240.174 57.938 238.932 59.252 236.628 59.252ZM242.492 63.122V49.226H243.824L243.986 50.36H244.04C244.922 49.622 246.002 48.992 247.136 48.992C249.674 48.992 251.024 50.954 251.024 53.978C251.024 57.308 249.026 59.252 246.776 59.252C245.894 59.252 244.976 58.838 244.094 58.118L244.13 59.828V63.122H242.492ZM246.524 57.866C248.126 57.866 249.332 56.408 249.332 53.996C249.332 51.818 248.594 50.36 246.74 50.36C245.912 50.36 245.084 50.828 244.13 51.71V56.858C245.012 57.596 245.876 57.866 246.524 57.866ZM253.654 59V49.226H255.292V59H253.654ZM254.482 47.21C253.834 47.21 253.384 46.796 253.384 46.112C253.384 45.482 253.834 45.068 254.482 45.068C255.112 45.068 255.58 45.482 255.58 46.112C255.58 46.796 255.112 47.21 254.482 47.21ZM261.671 59.252C259.583 59.252 258.899 57.938 258.899 55.994V50.558H257.441V49.334L258.971 49.226L259.151 46.472H260.537V49.226H263.183V50.558H260.537V56.03C260.537 57.218 260.915 57.92 262.049 57.92C262.391 57.92 262.841 57.776 263.147 57.65L263.471 58.874C262.931 59.072 262.283 59.252 261.671 59.252ZM267.154 59.252C265.516 59.252 264.292 58.226 264.292 56.462C264.292 54.338 266.128 53.276 270.286 52.808C270.286 51.548 269.89 50.342 268.288 50.342C267.136 50.342 266.11 50.882 265.354 51.404L264.706 50.252C265.606 49.676 266.974 48.992 268.54 48.992C270.934 48.992 271.942 50.576 271.942 53.006V59H270.592L270.448 57.848H270.376C269.458 58.622 268.36 59.252 267.154 59.252ZM267.604 57.92C268.558 57.92 269.35 57.47 270.286 56.624V53.906C266.992 54.284 265.894 55.094 265.894 56.354C265.894 57.47 266.65 57.92 267.604 57.92ZM276.775 59.252C275.533 59.252 275.047 58.46 275.047 57.056V44.69H276.685V57.164C276.685 57.686 276.901 57.884 277.153 57.884C277.225 57.884 277.297 57.884 277.495 57.848L277.711 59.108C277.477 59.18 277.225 59.252 276.775 59.252Z" fill="#141414"/>
</svg>
